<svg id="Logo" xmlns="http://www.w3.org/2000/svg" width="188.819" height="32.85" viewBox="0 0 188.819 32.85">
  <path id="Path_1007" data-name="Path 1007" d="M24.883,68.128a31.593,31.593,0,0,1-9.425,1.592c-5.153,0-8.881-1.3-11.478-3.77A14.154,14.154,0,0,1,0,55.645C.042,46.262,6.87,40.9,16.128,40.9a20.39,20.39,0,0,1,7.833,1.341L22.62,47.393a14.8,14.8,0,0,0-6.535-1.215c-5.32,0-9.383,2.974-9.383,9.132,0,5.865,3.686,9.258,8.922,9.258a9.785,9.785,0,0,0,3.1-.377V58.243H14.368V53.258H24.883Z" transform="translate(0 -37.039)" fill="#0060ca"/>
  <path id="Path_1008" data-name="Path 1008" d="M277.167,133.945c.168,2.639,2.807,3.9,5.781,3.9a16.869,16.869,0,0,0,5.655-.88l.838,4.314a19.36,19.36,0,0,1-7.415,1.3c-6.954,0-10.933-4.022-10.933-10.431,0-5.194,3.226-10.933,10.347-10.933,6.619,0,9.132,5.153,9.132,10.221a15.122,15.122,0,0,1-.209,2.514Zm7.5-4.357c0-1.55-.67-4.147-3.6-4.147-2.681,0-3.77,2.472-3.938,4.147Z" transform="translate(-245.499 -109.767)" fill="#0060ca"/>
  <path id="Path_1009" data-name="Path 1009" d="M473.964,67.525v5.53h4.566v4.692h-4.566v7.414c0,2.472.628,3.6,2.513,3.6a7.824,7.824,0,0,0,1.885-.168l.042,4.817a13.419,13.419,0,0,1-4.105.544,6.8,6.8,0,0,1-4.817-1.759c-1.173-1.215-1.759-3.184-1.759-6.074V77.746H465V73.055h2.723V69.242Z" transform="translate(-421.1 -61.15)" fill="#0060ca"/>
  <path id="Path_1010" data-name="Path 1010" d="M623.1,44.008V54.857h10.514V44.008h6.367V72.242h-6.367V60.429H623.1V72.242h-6.367V44.008Z" transform="translate(-558.511 -39.853)" fill="#0060ca"/>
  <rect id="Rectangle_448" data-name="Rectangle 448" width="6.367" height="20.484" transform="translate(83.819 11.905)" fill="#0060ca"/>
  <path id="Path_1011" data-name="Path 1011" d="M974.517,128.01c0-3.016-.042-4.985-.168-6.744h5.446l.251,3.77h.168a5.968,5.968,0,0,1,5.529-4.273,6.343,6.343,0,0,1,1.341.126v5.99a9.507,9.507,0,0,0-1.717-.168,4.094,4.094,0,0,0-4.357,3.225,7.522,7.522,0,0,0-.125,1.424V141.75h-6.367Z" transform="translate(-882.362 -109.361)" fill="#0060ca"/>
  <path id="Path_1012" data-name="Path 1012" d="M1101.546,133.944c.168,2.639,2.807,3.9,5.781,3.9a16.869,16.869,0,0,0,5.655-.88l.838,4.314a19.368,19.368,0,0,1-7.415,1.3c-6.953,0-10.933-4.022-10.933-10.431,0-5.194,3.226-10.933,10.347-10.933,6.618,0,9.132,5.153,9.132,10.221a15.12,15.12,0,0,1-.209,2.514Zm7.5-4.357c0-1.55-.67-4.147-3.6-4.147-2.681,0-3.77,2.472-3.938,4.147Z" transform="translate(-992.05 -109.766)" fill="#0060ca"/>
  <path id="Path_1013" data-name="Path 1013" d="M1317.5,28.034V51.66c0,2.3.084,4.734.168,6.116h-5.655l-.251-2.974h-.125a7.155,7.155,0,0,1-6.409,3.435c-4.859,0-8.755-4.147-8.755-10.514-.042-6.912,4.273-10.933,9.174-10.933,2.556,0,4.482.922,5.4,2.3h.084V28.034Zm-6.367,17.929a5.721,5.721,0,0,0-.084-1.173,3.83,3.83,0,0,0-3.728-3.1c-2.932,0-4.4,2.6-4.4,5.823,0,3.477,1.718,5.655,4.356,5.655a3.772,3.772,0,0,0,3.728-3.058,8.3,8.3,0,0,0,.126-1.466Z" transform="translate(-1174.076 -25.387)" fill="#0060ca"/>
  <path id="Path_1014" data-name="Path 1014" d="M888.672,0l-7.731,10.052-4.2-4.867,1.887-1.026,2.235,2.931" transform="translate(-793.967)" fill="#0060ca"/>
  <g id="Group_3635" data-name="Group 3635" transform="translate(144.844 20.447)">
    <path id="Path_1015" data-name="Path 1015" d="M1534.22,308.161a1.806,1.806,0,0,1,1.833-1.905,1.78,1.78,0,0,1,1.833,1.905,1.835,1.835,0,1,1-3.667,0Z" transform="translate(-1534.22 -297.789)" fill="#0060ca"/>
    <path id="Path_1016" data-name="Path 1016" d="M1587.036,228.228a8.586,8.586,0,0,1-3.329.6,5.66,5.66,0,0,1-6.054-6.006c0-3.521,2.412-6.247,6.537-6.247a7.91,7.91,0,0,1,2.871.531l-.531,2.243a4.885,4.885,0,0,0-2.243-.458,3.8,3.8,0,0,0,0,7.6,5.894,5.894,0,0,0,2.34-.458Z" transform="translate(-1573.552 -216.578)" fill="#0060ca"/>
    <path id="Path_1017" data-name="Path 1017" d="M1689.223,222.607a5.819,5.819,0,0,1-6.03,6.247,5.679,5.679,0,0,1-5.885-6.054c0-3.859,2.533-6.223,6.078-6.223C1686.882,216.577,1689.223,219.037,1689.223,222.607Zm-8.852.121c0,2.267,1.134,3.98,2.919,3.98,1.688,0,2.87-1.64,2.87-4.028,0-1.833-.82-3.956-2.846-3.956-2.1,0-2.943,2.05-2.943,4Z" transform="translate(-1663.798 -216.577)" fill="#0060ca"/>
    <path id="Path_1018" data-name="Path 1018" d="M1815.635,220.348c0-1.351-.048-2.484-.1-3.5h2.533l.145,1.737h.072a4,4,0,0,1,3.618-2,3.387,3.387,0,0,1,3.256,2.171h.048a4.628,4.628,0,0,1,1.423-1.471,4.076,4.076,0,0,1,2.412-.7c1.93,0,3.908,1.327,3.908,5.089V228.6h-2.895v-6.489c0-1.954-.675-3.112-2.1-3.112a2.262,2.262,0,0,0-2.074,1.568,3.155,3.155,0,0,0-.145.989V228.6h-2.895v-6.8c0-1.64-.651-2.8-2.026-2.8a2.383,2.383,0,0,0-2.147,1.664,3.38,3.38,0,0,0-.145.989V228.6h-2.894Z" transform="translate(-1788.979 -216.585)" fill="#0060ca"/>
  </g>
</svg>
