<svg width="131" height="25" viewBox="0 0 131 25" fill="none" xmlns="http://www.w3.org/2000/svg">
<path d="M19.1999 21.9C17.9999 22.8 14.3999 24.3 11.3999 24.3C5.0999 24.3 0.899902 19.8 0.899902 13.5C0.899902 7.20003 5.0999 2.70002 11.3999 2.70002C14.3999 2.70002 17.0999 3.75003 18.2999 4.50002L18.5999 9.60003H18.1499C16.9499 7.20003 14.9999 3.30002 11.3999 3.30002C8.0999 3.30002 5.9999 7.80002 5.9999 13.5C5.9999 19.2 8.0999 23.7 11.3999 23.7C12.5099 23.7 13.4999 23.49 14.3999 23.1V16.95C14.3999 15 14.3999 15 12.5999 15V14.4H20.9999V15C19.1999 15 19.1999 15 19.1999 16.95V21.9Z" fill="white"/>
<path d="M30.2987 9.30002C32.5787 9.30002 32.1587 12.66 31.6487 14.7H27.2387C27.3587 10.89 28.5887 9.30002 30.2987 9.30002ZM30.1487 24.3C33.8987 24.3 35.9987 21.3 36.5987 18.3H36.2987C35.6987 19.35 34.4987 20.85 31.7987 20.85C29.5487 20.85 27.2387 19.35 27.2387 15.3H36.1187C37.0187 10.2 33.8987 8.70002 30.4487 8.70002C26.6987 8.70002 22.4987 11.55 22.4987 16.65C22.4987 20.7 25.1987 24.3 30.1487 24.3Z" fill="white"/>
<path d="M44.6987 9.90003H48.2987V9.00003H44.6987V4.50002H44.3987L39.8987 9.00003L38.6987 9.15002V9.90003H39.8987V20.7C39.8987 23.25 41.6987 24.3 43.7987 24.3C45.2987 24.3 47.3987 23.7 48.8987 22.5V22.2C47.8487 22.5 47.0987 22.65 46.4987 22.65C44.9987 22.65 44.6987 21.9 44.6987 19.95V9.90003Z" fill="white"/>
<path d="M70.1952 5.55003C70.1952 3.60003 70.1952 3.60003 71.9952 3.60003V3.00002H63.5952V3.60003C65.3952 3.60003 65.3952 3.60003 65.3952 5.55003V13.05H56.9952V5.55003C56.9952 3.60003 56.9952 3.60003 58.7952 3.60003V3.00002H50.3952V3.60003C52.1952 3.60003 52.1952 3.60003 52.1952 5.55003V21.45C52.1952 23.4 52.1952 23.4 50.3952 23.4V24H58.7952V23.4C56.9952 23.4 56.9952 23.4 56.9952 21.45V13.65H65.3952V21.45C65.3952 23.4 65.3952 23.4 63.5952 23.4V24H71.9952V23.4C70.1952 23.4 70.1952 23.4 70.1952 21.45V5.55003Z" fill="white"/>
<path d="M80.7034 8.70002H80.4634L74.4034 10.05V10.5C75.9034 10.5 75.9034 10.5 75.9034 12V21.45C75.9034 23.4 75.9034 23.4 74.1034 23.4V24H82.5034V23.4C80.7034 23.4 80.7034 23.4 80.7034 21.45V8.70002ZM75.5434 3.69002C75.5434 5.22002 76.7734 6.45002 78.3034 6.45002C79.8334 6.45002 81.0934 5.22002 81.0934 3.69002C81.0934 2.16002 79.8334 0.900024 78.3034 0.900024C76.7734 0.900024 75.5434 2.16002 75.5434 3.69002Z" fill="white"/>
<path d="M90.2976 12.75C91.0476 12.15 92.0976 12.3 94.0476 12.9C96.4476 13.65 97.1376 8.70002 94.1976 8.70002C92.3976 8.70002 91.4076 10.05 90.3576 12.15H90.2976L90.3876 8.70002H90.1476L83.9976 10.05V10.5C85.4976 10.5 85.4976 10.5 85.4976 12V21.45C85.4976 23.4 85.4976 23.4 83.6976 23.4V24H92.0976V23.4C90.2976 23.4 90.2976 23.4 90.2976 21.45V12.75Z" fill="white"/>
<path d="M105.135 9.30002C107.415 9.30002 106.995 12.66 106.485 14.7H102.075C102.195 10.89 103.425 9.30002 105.135 9.30002ZM104.985 24.3C108.735 24.3 110.835 21.3 111.435 18.3H111.135C110.535 19.35 109.335 20.85 106.635 20.85C104.385 20.85 102.075 19.35 102.075 15.3H110.955C111.855 10.2 108.735 8.70002 105.285 8.70002C101.535 8.70002 97.3347 11.55 97.3347 16.65C97.3347 20.7 100.035 24.3 104.985 24.3Z" fill="white"/>
<path d="M121.335 22.5C119.535 22.5 118.035 20.4 117.885 16.5C117.735 12.45 118.935 9.30002 121.035 9.30002C121.935 9.30002 123.435 9.60003 123.435 13.05V21.69C122.835 22.2 122.085 22.5 121.335 22.5ZM123.435 9.39003C122.415 8.85003 121.365 8.70002 120.585 8.70002C116.685 8.70002 112.935 11.7 112.935 16.5C112.935 21 115.335 24.3 119.235 24.3C121.035 24.3 122.385 23.55 123.375 22.2H123.435V24.3H123.675L130.335 22.95V22.5C128.235 22.5 128.235 22.5 128.235 21V0.900024H127.995L121.935 2.25002V2.70002C123.435 2.70002 123.435 2.70002 123.435 4.20003V9.39003Z" fill="white"/>
</svg>
