<svg width="44" height="45" viewBox="0 0 44 45" fill="none" xmlns="http://www.w3.org/2000/svg">
<path d="M8.3639 11.9952C6.35572 11.9952 4.72754 10.3678 4.72754 8.36064C4.72754 6.35345 6.35572 4.72607 8.3639 4.72607C10.3721 4.72607 12.0003 6.35345 12.0003 8.36064C12.0003 10.3678 10.3721 11.9952 8.3639 11.9952Z" stroke="#0060CA" stroke-width="3" stroke-miterlimit="10"/>
<path d="M11.0909 40.1628H5.63636L4.72727 30.1678L2 29.2591V21.0813C2 19.0742 3.62818 17.4468 5.63636 17.4468H11.0909C12.4127 17.4468 13.57 18.1528 14.2064 19.2068" stroke="#0060CA" stroke-width="3" stroke-miterlimit="10"/>
<path d="M35.6364 11.9952C37.6445 11.9952 39.2727 10.3678 39.2727 8.36064C39.2727 6.35345 37.6445 4.72607 35.6364 4.72607C33.6282 4.72607 32 6.35345 32 8.36064C32 10.3678 33.6282 11.9952 35.6364 11.9952Z" stroke="#0060CA" stroke-width="3" stroke-miterlimit="10"/>
<path d="M32.9092 40.1628H38.3637L39.2728 30.1678L42.0001 29.2591V21.0813C42.0001 19.0742 40.3719 17.4468 38.3637 17.4468H32.9092C31.5873 17.4468 30.4301 18.1528 29.7937 19.2068" stroke="#0060CA" stroke-width="3" stroke-miterlimit="10"/>
<path d="M22.0003 12.9037C18.9876 12.9037 16.5458 10.4631 16.5458 7.45185C16.5458 4.44061 18.9876 2 22.0003 2C25.013 2 27.4549 4.44061 27.4549 7.45185C27.4549 10.4631 25.013 12.9037 22.0003 12.9037Z" stroke="#393E46" stroke-width="3" stroke-miterlimit="10"/>
<path d="M26.5455 42.8888H17.4546L16.5455 31.9851L12.9092 31.0764V21.99C12.9092 19.9828 14.5374 18.3555 16.5455 18.3555H27.4546C29.4628 18.3555 31.091 19.9828 31.091 21.99V31.0764L27.4546 31.9851L26.5455 42.8888Z" stroke="#393E46" stroke-width="3" stroke-miterlimit="10"/>
</svg>
